<svg xmlns="http://www.w3.org/2000/svg"  viewBox="0 0 100 100" width="100px" height="100px"><path d="M 50 16 C 31.234534 16 16 31.234534 16 50 C 16 68.765466 31.234534 84 50 84 C 68.765466 84 84 68.765466 84 50 C 84 48.963361 83.9329 47.89815 83.839844 46.90625 A 1.0001 1.0001 0 0 0 82.394531 46.107422 C 81.331945 46.642323 80.105794 47 78.8125 47 C 75.936672 47 73.556663 45.533724 72.554688 43.607422 A 1.0001 1.0001 0 0 0 71.292969 43.140625 C 69.92359 43.691333 68.437847 44 66.875 44 C 60.304383 44 55 38.695617 55 32.125 C 55 30.550787 55.31184 29.055736 55.869141 27.677734 A 1.0001 1.0001 0 0 0 55.9375 27.398438 C 55.9466 27.303567 55.962376 27.207095 55.978516 27.072266 A 1.0001 1.0001 0 0 0 55.322266 26.011719 C 53.460673 25.344448 52 23.278529 52 20.75 C 52 19.565708 52.320858 18.476926 52.855469 17.587891 A 1.0001 1.0001 0 0 0 52.060547 16.074219 C 51.395439 16.033725 50.700934 16 50 16 z M 71 16 C 68.796783 16 67 17.796783 67 20 C 67 22.203217 68.796783 24 71 24 C 73.203217 24 75 22.203217 75 20 C 75 17.796783 73.203217 16 71 16 z M 71 17 C 72.662777 17 74 18.337223 74 20 C 74 21.662777 72.662777 23 71 23 C 69.337223 23 68 21.662777 68 20 C 68 19.792153 68.020735 19.590229 68.060547 19.394531 C 68.339233 18.024648 69.54507 17 71 17 z M 50 18 C 50.169019 18 50.344348 18.015501 50.515625 18.019531 C 50.213095 18.87606 50 19.778399 50 20.75 C 50 23.70152 51.561321 26.225869 53.859375 27.447266 C 53.330933 28.912416 53 30.475735 53 32.125 C 53 39.776383 59.223617 46 66.875 46 C 68.426177 46 69.896459 45.692107 71.287109 45.220703 C 72.831512 47.493118 75.597273 49 78.8125 49 C 79.929149 49 80.950477 48.748938 81.916016 48.416016 C 81.947361 48.949412 82 49.482556 82 50 C 82 67.684534 67.684534 82 50 82 C 32.315466 82 18 67.684534 18 50 C 18 32.315466 32.315466 18 50 18 z M 68 28 C 66.349068 28 65 29.349068 65 31 C 65 32.650932 66.349068 34 68 34 C 69.650932 34 71 32.650932 71 31 C 71 29.349068 69.650932 28 68 28 z M 68 29 C 69.110492 29 70 29.889508 70 31 C 70 32.110492 69.110492 33 68 33 C 66.889508 33 66 32.110492 66 31 C 66 30.861189 66.014524 30.726303 66.041016 30.595703 C 66.226456 29.681503 67.02832 29 68 29 z M 43 33 C 41.349068 33 40 34.349068 40 36 C 40 37.650932 41.349068 39 43 39 C 44.650932 39 46 37.650932 46 36 C 46 34.349068 44.650932 33 43 33 z M 81.5 33 C 80.12521 33 79 34.12521 79 35.5 C 79 36.87479 80.12521 38 81.5 38 C 82.87479 38 84 36.87479 84 35.5 C 84 34.12521 82.87479 33 81.5 33 z M 43 34 C 44.110492 34 45 34.889508 45 36 C 45 37.110492 44.110492 38 43 38 C 41.889508 38 41 37.110492 41 36 C 41 35.861188 41.014524 35.726303 41.041016 35.595703 C 41.226456 34.681503 42.028319 34 43 34 z M 81.5 34 C 82.334349 34 83 34.665651 83 35.5 C 83 36.334349 82.334349 37 81.5 37 C 80.665651 37 80 36.334349 80 35.5 C 80 35.395706 80.009466 35.293364 80.029297 35.195312 C 80.168114 34.508954 80.769945 34 81.5 34 z M 32.5 41 C 29.468356 41 27 43.468356 27 46.5 C 27 49.531644 29.468356 52 32.5 52 C 35.531644 52 38 49.531644 38 46.5 C 38 43.468356 35.531644 41 32.5 41 z M 32.5 42 C 34.991204 42 37 44.008796 37 46.5 C 37 48.991204 34.991204 51 32.5 51 C 30.008796 51 28 48.991204 28 46.5 C 28 46.1886 28.032003 45.885141 28.091797 45.591797 C 28.510352 43.538389 30.320196 42 32.5 42 z M 48 48 C 46.349068 48 45 49.349068 45 51 C 45 52.650932 46.349068 54 48 54 C 49.650932 54 51 52.650932 51 51 C 51 49.349068 49.650932 48 48 48 z M 48 49 C 49.110492 49 50 49.889508 50 51 C 50 52.110492 49.110492 53 48 53 C 46.889508 53 46 52.110492 46 51 C 46 50.861188 46.014524 50.726303 46.041016 50.595703 C 46.226456 49.681503 47.028319 49 48 49 z M 78.103516 53.994141 A 0.50005 0.50005 0 0 0 77.638672 54.421875 C 77.479839 55.421936 77.260901 56.403372 76.998047 57.369141 A 0.50005 0.50005 0 1 0 77.962891 57.630859 C 78.234036 56.634628 78.459833 55.618064 78.625 54.578125 A 0.50005 0.50005 0 0 0 78.103516 53.994141 z M 36 59 C 33.796783 59 32 60.796783 32 63 C 32 65.203217 33.796783 67 36 67 C 38.203217 67 40 65.203217 40 63 C 40 60.796783 38.203217 59 36 59 z M 58 59 C 55.244499 59 53 61.244499 53 64 C 53 66.755501 55.244499 69 58 69 C 60.755501 69 63 66.755501 63 64 C 63 61.244499 60.755501 59 58 59 z M 76.447266 59.994141 A 0.50005 0.50005 0 0 0 76 60.316406 C 75.314433 62.045526 74.44626 63.683321 73.443359 65.228516 A 0.50005 0.50005 0 1 0 74.28125 65.771484 C 75.31635 64.176679 76.217253 62.480474 76.929688 60.683594 A 0.50005 0.50005 0 0 0 76.447266 59.994141 z M 36 60 C 37.662777 60 39 61.337223 39 63 C 39 64.662777 37.662777 66 36 66 C 34.337223 66 33 64.662777 33 63 C 33 62.792153 33.020735 62.590229 33.060547 62.394531 C 33.339233 61.024648 34.54507 60 36 60 z M 58 60 C 60.215061 60 62 61.784939 62 64 C 62 66.215061 60.215061 68 58 68 C 55.784939 68 54 66.215061 54 64 C 54 63.723117 54.026945 63.452201 54.080078 63.191406 C 54.452011 61.36584 56.061822 60 58 60 z M 71.621094 67.994141 A 0.50005 0.50005 0 0 0 71.240234 68.175781 C 66.113678 74.180839 58.518446 78 50 78 A 0.50005 0.50005 0 1 0 50 79 C 58.817554 79 66.692557 75.041161 72 68.824219 A 0.50005 0.50005 0 0 0 71.621094 67.994141 z"/></svg>